<svg width="18" height="17" viewBox="0 0 18 17" fill="none" xmlns="http://www.w3.org/2000/svg">
<mask id="mask0_1_27" style="mask-type:luminance" maskUnits="userSpaceOnUse" x="0" y="0" width="18" height="17">
<path d="M18 0H0V17H18V0Z" fill="white"/>
</mask>
<g mask="url(#mask0_1_27)">
<path fill-rule="evenodd" clip-rule="evenodd" d="M16.4242 12.5867C16.4693 12.5397 16.5228 12.5025 16.5818 12.477C16.6409 12.4516 16.7041 12.4385 16.7681 12.4385C16.832 12.4385 16.8953 12.4516 16.9543 12.477C17.0133 12.5025 17.0668 12.5397 17.1119 12.5867L17.8566 13.358C17.9018 13.4047 17.9377 13.4602 17.9621 13.5213C17.9866 13.5824 17.9992 13.6479 17.9992 13.7141C17.9992 13.7802 17.9866 13.8457 17.9621 13.9068C17.9377 13.9679 17.9018 14.0234 17.8566 14.0702L15.2201 16.8006C15.175 16.8474 15.1214 16.8846 15.0624 16.9099C15.0034 16.9352 14.9402 16.9483 14.8763 16.9483C14.8125 16.9483 14.7492 16.9352 14.6902 16.9099C14.6312 16.8846 14.5776 16.8474 14.5325 16.8006L13.7877 16.0293C13.7425 15.9826 13.7067 15.9271 13.6822 15.866C13.6578 15.8049 13.6452 15.7394 13.6452 15.6732C13.6452 15.6071 13.6578 15.5416 13.6822 15.4805C13.7067 15.4194 13.7425 15.3639 13.7877 15.3172L16.4242 12.5867ZM16.8822 12.8232C16.8517 12.7923 16.8107 12.775 16.7681 12.775C16.7254 12.775 16.6844 12.7923 16.6539 12.8232L14.0174 15.5536C14.0023 15.5692 13.9903 15.5878 13.9821 15.6082C13.9739 15.6286 13.9697 15.6505 13.9697 15.6726C13.9697 15.6947 13.9739 15.7165 13.9821 15.737C13.9903 15.7574 14.0023 15.7759 14.0174 15.7915L14.7622 16.5628C14.7772 16.5784 14.7951 16.5909 14.8148 16.5994C14.8345 16.6079 14.8556 16.6122 14.877 16.6122C14.8983 16.6122 14.9195 16.6079 14.9392 16.5994C14.9589 16.5909 14.9768 16.5784 14.9918 16.5628L17.6283 13.8323C17.6581 13.8007 17.6748 13.7583 17.6748 13.7141C17.6748 13.6699 17.6581 13.6274 17.6283 13.5958L16.8822 12.8232Z" fill="white"/>
<path fill-rule="evenodd" clip-rule="evenodd" d="M10.1264 11.2147L10.4424 11.1995L10.2791 10.9122C10.2712 10.8994 10.2641 10.8861 10.2578 10.8723C10.1835 10.7158 10.1702 10.5356 10.2207 10.3691C10.2207 10.3526 10.2313 10.3375 10.2379 10.321L10.3534 10.0268L10.0733 10.0405L8.3157 10.6331C8.2991 10.6391 8.2848 10.6504 8.275 10.6655C8.2653 10.6805 8.26041 10.6985 8.26131 10.7166C8.26221 10.7348 8.2688 10.7521 8.28 10.7661C8.2913 10.78 8.3066 10.7898 8.3236 10.794L10.1264 11.2147ZM9.8968 10.8173C9.8689 10.701 9.86091 10.5805 9.87291 10.4612L9.25951 10.6689L9.8968 10.8173Z" fill="white"/>
<path fill-rule="evenodd" clip-rule="evenodd" d="M12.3261 10.7733L16.7694 10.5588C16.8338 10.5557 16.8944 10.5263 16.9379 10.4769C16.9813 10.4275 17.004 10.3623 17.001 10.2956C16.998 10.2288 16.9696 10.1661 16.9219 10.1211C16.8742 10.0761 16.8112 10.0525 16.7468 10.0556L11.8721 10.2907L12.3261 10.7733ZM12.1934 11.1157L16.784 10.8998C16.9343 10.8925 17.0757 10.8237 17.177 10.7084C17.2784 10.5932 17.3313 10.4409 17.3243 10.2852C17.3172 10.1295 17.2508 9.9831 17.1395 9.8782C17.0282 9.7732 16.8812 9.7184 16.7309 9.7257L11.134 10.0007L12.1934 11.1157Z" fill="white"/>
<path fill-rule="evenodd" clip-rule="evenodd" d="M14.8471 9.12209C14.8362 9.10179 14.8214 9.08399 14.8036 9.06979C14.7858 9.05559 14.7653 9.04529 14.7436 9.03959C14.3878 8.95029 13.8315 8.81829 13.3178 8.71519C13.0616 8.66429 12.8133 8.61889 12.6049 8.59009C12.4401 8.56129 12.2727 8.55159 12.1058 8.56119C11.8615 8.59279 11.2668 8.75229 10.7211 8.90629L9.92461 9.13589C9.73081 9.19219 9.58741 9.23349 9.53431 9.24719C9.31131 9.30499 9.18651 9.56209 9.24621 9.84389C9.31391 10.089 9.45301 10.3066 9.64451 10.4667C9.66971 10.4887 9.72151 10.4667 9.77731 10.4447C9.83301 10.4227 9.89012 10.3966 9.92062 10.42C9.95122 10.4433 9.94321 10.5025 9.94321 10.5657C9.94321 10.629 9.94321 10.7032 9.97111 10.7266C10.01 10.9339 10.1164 11.1212 10.2724 11.2573L10.291 11.2765C10.25 11.3224 10.2131 11.3721 10.1808 11.425C10.1219 11.5192 10.088 11.6278 10.0826 11.7398C10.0821 11.8094 10.0955 11.8783 10.122 11.9421C10.1485 12.006 10.1875 12.0635 10.2366 12.111C10.3107 12.1868 10.4024 12.2416 10.5028 12.2702C10.6031 12.2989 10.709 12.3004 10.8101 12.2746C10.7967 12.3809 10.8036 12.4889 10.8305 12.5923C10.8574 12.6958 10.9038 12.7928 10.9669 12.8777C11.03 12.9626 11.1087 13.0338 11.1984 13.0872C11.2881 13.1406 11.3872 13.1752 11.4898 13.1889C11.5433 13.1976 11.5975 13.2013 11.6517 13.1999L11.9172 12.9621C11.8478 12.7773 11.7988 12.585 11.7712 12.3888C11.7674 12.3515 11.7509 12.317 11.7248 12.2911L10.4928 11.0139C10.4877 11.0081 10.4819 11.0031 10.4755 10.9988C10.3719 10.9054 10.3041 10.7766 10.2844 10.6358C10.3138 10.4673 10.3816 10.3085 10.4822 10.1725C10.5103 10.1364 10.5453 10.1068 10.5851 10.0855C10.6249 10.0642 10.6685 10.0517 10.7132 10.0488C10.8773 10.056 11.0349 10.1172 11.1632 10.2234L12.585 11.6972C12.6012 11.7141 12.6206 11.7272 12.6421 11.7357C12.8687 11.8195 13.1157 11.8229 13.3443 11.7453C13.5105 11.6828 13.6608 11.582 13.7838 11.4505C13.9068 11.3191 13.9994 11.1604 14.0546 10.9864C14.0698 10.945 14.0688 10.899 14.0517 10.8584C14.0345 10.8178 14.0027 10.7857 13.963 10.7692C13.9432 10.761 13.9221 10.7569 13.9008 10.7573C13.8795 10.7576 13.8584 10.7623 13.8389 10.7711C13.8194 10.78 13.8018 10.7927 13.7871 10.8087C13.7724 10.8246 13.7608 10.8435 13.7532 10.864C13.7148 10.992 13.6489 11.1092 13.5603 11.2068C13.4718 11.3045 13.363 11.38 13.2421 11.4277C13.0943 11.4753 12.936 11.4753 12.7881 11.4277L11.3809 9.97179C11.374 9.96419 11.3665 9.95729 11.3584 9.95109C11.1686 9.79749 10.9354 9.71249 10.6946 9.70919C10.607 9.71449 10.5213 9.73819 10.4428 9.77889C10.3643 9.81949 10.2946 9.87629 10.2379 9.94559C10.1412 10.0651 10.0677 10.2028 10.0215 10.3512C9.70691 10.1079 9.59271 9.90169 9.56491 9.76829C9.53171 9.61159 9.60731 9.57169 9.61401 9.57029L10.0242 9.45349C10.2432 9.38879 10.5233 9.30769 10.8061 9.22799C11.3637 9.07119 11.9305 8.91859 12.1456 8.89109C12.2851 8.88609 12.4248 8.89579 12.5624 8.91999C12.7616 8.94749 13.0032 8.99149 13.2567 9.04239C13.732 9.13719 14.2444 9.25819 14.5975 9.34479C14.6546 9.45209 14.7303 9.58819 14.806 9.70919C14.8511 9.78339 14.8975 9.85629 14.9387 9.91269C14.9587 9.94069 14.9804 9.96729 15.0038 9.99239C15.0213 10.0134 15.0413 10.0318 15.0635 10.0474L15.3609 9.88789C15.3333 9.85079 15.3022 9.81669 15.2679 9.78619C15.2608 9.77869 15.2528 9.77219 15.244 9.76689C15.2293 9.75089 15.2156 9.73389 15.2029 9.71609C15.1684 9.66929 15.1285 9.60739 15.0847 9.53589C14.9984 9.39849 14.9082 9.23349 14.8524 9.12349L14.8471 9.12209ZM10.4543 11.5968C10.473 11.5656 10.4943 11.5361 10.518 11.5089L10.8871 11.8924L10.8167 11.9199C10.7595 11.9487 10.6954 11.9591 10.6324 11.9498C10.5695 11.9405 10.5107 11.9119 10.4636 11.8677C10.4455 11.8523 10.4307 11.833 10.4204 11.8112C10.4101 11.7894 10.4045 11.7655 10.4039 11.7412C10.4092 11.6913 10.4265 11.6435 10.4543 11.6023V11.5968ZM11.1579 12.2306C11.1579 12.2169 11.1685 12.2032 11.1752 12.1894L11.4566 12.4822C11.4766 12.6067 11.5041 12.7298 11.5389 12.8507C11.4769 12.843 11.4171 12.8222 11.3632 12.7896C11.3093 12.7569 11.2625 12.7132 11.2256 12.661C11.1806 12.6019 11.1507 12.5319 11.1389 12.4576C11.1271 12.3833 11.1336 12.3071 11.1579 12.2361V12.2306Z" fill="white"/>
<path d="M15.8255 11.0126C15.9662 11.5089 16.0804 12.0492 16.1454 12.4149L16.4813 12.7641C16.4964 12.7797 16.5084 12.7982 16.5166 12.8186C16.5248 12.839 16.5291 12.8609 16.5291 12.883C16.5291 12.9051 16.5248 12.927 16.5166 12.9474C16.5084 12.9678 16.4964 12.9864 16.4813 13.002C16.4506 13.0329 16.4094 13.0503 16.3665 13.0503C16.3236 13.0503 16.2824 13.0329 16.2516 13.002L15.8799 12.6156C15.8561 12.5916 15.8403 12.5603 15.8348 12.5263C15.7514 12.048 15.6446 11.5745 15.5149 11.1074C15.487 11.0112 15.4578 10.9163 15.4286 10.8324L15.7485 10.7623C15.7751 10.8462 15.8003 10.9314 15.8255 11.018V11.0126Z" fill="white"/>
<path d="M11.9159 12.9621C12.164 13.6853 12.6595 14.2894 13.3085 14.66C13.3642 14.6828 13.4168 14.7128 13.4652 14.7494C13.5196 14.7892 13.5793 14.8374 13.6391 14.8869C13.7572 14.9913 13.8847 15.1178 13.9909 15.2278C14.006 15.2434 14.018 15.2619 14.0262 15.2823C14.0344 15.3028 14.0386 15.3246 14.0386 15.3467C14.0386 15.3688 14.0344 15.3907 14.0262 15.4111C14.018 15.4315 14.006 15.4501 13.9909 15.4657C13.9601 15.4967 13.9189 15.514 13.876 15.514C13.8331 15.514 13.7919 15.4967 13.7612 15.4657C13.6576 15.3584 13.5382 15.2402 13.4293 15.1439C13.3736 15.0958 13.3231 15.0546 13.2806 15.023C13.2538 15.0023 13.2249 14.9847 13.1943 14.9707L13.1704 14.9611C12.4826 14.5756 11.9478 13.9516 11.6597 13.1985L11.7261 12.8823L11.9159 12.9621Z" fill="white"/>
<path d="M9.47061 0.00415039H4.19501V0.611831H9.47061V0.00415039Z" fill="white"/>
<path d="M9.47061 16.3937H2.43736V17.0014H9.47061V16.3937Z" fill="white"/>
<path d="M0.679711 4.2538H0.0929413V14.5734H0.679711V4.2538Z" fill="white"/>
<path d="M4.19631 3.6461H0.0929413V4.2538H4.19631V3.6461Z" fill="white"/>
<path d="M7.34661 7.82839H1.85059V8.43609H7.34661V7.82839Z" fill="white"/>
<path d="M7.34661 9.87409H1.85059V10.4818H7.34661V9.87409Z" fill="white"/>
<path d="M7.34661 11.9199H1.85059V12.5276H7.34661V11.9199Z" fill="white"/>
<path d="M10.0561 13.9657H1.85059V14.5734H10.0561V13.9657Z" fill="white"/>
<path d="M3.51811 0.000305176L-0.000183105 3.644L0.414727 4.0737L3.93301 0.430005L3.51811 0.000305176Z" fill="white"/>
<path d="M4.1963 0.00415039H3.6096V4.2538H4.1963V0.00415039Z" fill="white"/>
<path d="M9.47061 0.00415039V0.61184H10.6428C10.798 0.6122 10.9467 0.676191 11.0564 0.789821C11.1661 0.903441 11.2279 1.05745 11.2283 1.21814V8.168L11.815 8.0305V1.21814C11.8147 0.89628 11.6911 0.58771 11.4713 0.36012C11.2516 0.13253 10.9536 0.00451039 10.6428 0.00415039H9.47061Z" fill="white"/>
<path d="M9.47061 17.0014V16.3992H10.6428C10.798 16.3988 10.9467 16.3348 11.0564 16.2212C11.1661 16.1076 11.2279 15.9536 11.2283 15.7929V13.7402L11.815 14.4359V15.7874C11.8147 16.1092 11.6911 16.4178 11.4713 16.6454C11.2516 16.873 10.9536 17.001 10.6428 17.0014H9.47061Z" fill="white"/>
<path d="M2.43603 17.0014V16.3992H1.26382C1.10866 16.3989 0.959954 16.3349 0.850234 16.2212C0.740524 16.1076 0.678734 15.9536 0.678384 15.7929V14.5789H0.0916138V15.7929C0.0919638 16.1148 0.215574 16.4233 0.435334 16.6509C0.655094 16.8785 0.953044 17.0065 1.26382 17.0069L2.43603 17.0014Z" fill="white"/>
<path d="M8.4989 3.46599L8.3515 3.5375L6.1637 2.48438L5.9765 2.57236L7.5935 3.9252C7.085 4.2002 6.5315 4.5095 6.2155 4.7213L5.5 4.20979L5.4469 4.2359L6.0323 4.8629C5.9832 4.9069 5.958 4.9385 5.9659 4.9563C5.9739 4.9742 6.0124 4.97559 6.0774 4.96459L6.1478 5.8349L6.2022 5.80879L6.3071 4.9069C6.6695 4.7996 7.2603 4.5741 7.7926 4.3569L7.709 6.5003L7.8962 6.4123L8.5599 4.01729L8.7099 3.95C9.4082 3.62 9.9273 3.24329 9.8689 3.10859C9.8104 2.97381 9.1985 3.13739 8.4989 3.46599Z" fill="white"/>
</g>
</svg>
