<svg width="53" height="61" viewBox="0 0 53 61" fill="none" xmlns="http://www.w3.org/2000/svg">
<path d="M52.4288 46.8954C51.4288 45.4454 50.4188 44.0054 49.4088 42.5654L45.3388 36.7554L45.5188 36.4854C49.1188 31.0854 50.2988 25.1754 49.0488 18.9154C47.6088 11.7654 42.9588 5.87539 36.2788 2.74539C29.5788 -0.394606 22.0488 -0.184606 15.6088 3.30539C14.7088 3.79539 13.8588 4.38539 13.0288 4.96539L12.4788 5.34539C12.1888 5.54539 12.0088 5.82539 11.9588 6.13539C11.9088 6.42539 11.9888 6.72539 12.1788 6.96539C12.5688 7.47539 13.1988 7.54539 13.7988 7.13539C13.8488 7.10539 13.8988 7.06539 13.9488 7.02539L14.0388 6.95539C19.3888 3.04539 25.3188 1.86539 31.6488 3.44539C42.0188 6.02539 48.7488 16.3854 46.9688 27.0254C45.4388 36.2054 37.6288 43.4254 28.4188 44.1954C21.6088 44.7554 15.8288 42.5254 11.2388 37.5454C6.96885 32.9054 5.17885 27.3254 5.93885 20.9454C6.40884 16.9154 8.04885 13.2354 10.7988 9.99539C11.0988 9.64539 11.2388 9.28539 11.1988 8.94539C11.1688 8.66539 11.0288 8.41539 10.7788 8.22539C10.2488 7.80539 9.59885 7.93539 9.07885 8.56539C3.61885 15.2554 2.16885 22.8054 4.76885 31.0054C5.36884 32.8954 6.32885 34.7854 7.69884 36.7654L7.67884 36.7954C7.59885 36.9154 7.51885 37.0354 7.43885 37.1554L5.68885 39.6554C4.02885 42.0254 2.37885 44.3954 0.708845 46.7554C-0.0711547 47.8654 -0.191155 48.9054 0.358845 49.9454C0.928845 51.0254 1.86885 51.5354 3.22885 51.4954C4.94885 51.4454 6.67885 51.4254 8.39885 51.3954L9.84885 51.3754C10.5088 51.3654 10.6188 51.4354 10.8388 52.0754C11.0288 52.6154 11.2188 53.1654 11.4088 53.7054C11.8888 55.0754 12.3888 56.4854 12.8188 57.8854C13.2688 59.3354 13.9988 60.1454 15.1588 60.5354H16.3488C17.4088 60.2454 18.0388 59.4954 18.5088 58.8054C19.6088 57.2054 20.7288 55.6154 21.8388 54.0254C22.8488 52.5754 23.8688 51.1254 24.8788 49.6654C25.0688 49.3954 25.2588 48.9554 25.2288 48.5654C25.1988 48.1854 24.9688 47.8754 24.6088 47.7254C24.2188 47.5654 23.7588 47.6454 23.4388 47.9254C23.2788 48.0654 23.1688 48.2254 23.0588 48.3854L23.0088 48.4654C20.8388 51.5554 18.6788 54.6454 16.5188 57.7354C16.2488 58.1154 16.0688 58.3554 15.6988 58.2954C15.3288 58.2354 15.2188 57.9654 15.0688 57.5154C14.3688 55.4454 13.6488 53.3854 12.9288 51.3254C12.3988 49.7954 11.4488 49.1154 9.80885 49.1354C7.55885 49.1654 5.31885 49.2054 3.06885 49.2554C2.51885 49.2654 2.39885 49.1254 2.35885 48.9654C2.28885 48.7054 2.33885 48.3454 2.45885 48.1654C4.26885 45.5354 6.09885 42.9254 7.92884 40.3154L9.14885 38.5954C9.19885 38.6654 9.25885 38.7454 9.31885 38.8054C13.6488 43.5654 19.0688 46.1554 25.4388 46.4954C25.7988 46.5154 25.9888 46.6154 26.1888 46.9054C27.4488 48.7154 28.7088 50.5154 29.9688 52.3154C31.4788 54.4754 32.9888 56.6354 34.4888 58.7954C34.9688 59.4854 35.5988 60.2254 36.6488 60.5254H37.8388C38.9988 60.1454 39.7288 59.3354 40.1788 57.8754C40.6188 56.4754 41.1188 55.0654 41.5988 53.6954C41.7888 53.1554 41.9788 52.6054 42.1688 52.0654C42.3888 51.4154 42.4888 51.3454 43.1588 51.3654L45.9388 51.4154C47.2388 51.4354 48.5388 51.4654 49.8388 51.4754C50.1588 51.4754 50.4988 51.4754 50.8288 51.3954C51.7588 51.1654 52.4688 50.5354 52.7988 49.6754C53.1388 48.7654 52.9988 47.7554 52.4088 46.8954H52.4288ZM50.6888 48.9254C50.5188 49.2354 50.2388 49.2554 49.7988 49.2454C47.5888 49.1954 45.3888 49.1554 43.1788 49.1254C43.1488 49.1254 43.1288 49.1254 43.0988 49.1254C41.5588 49.1254 40.5988 49.8054 40.0888 51.2754C39.3488 53.3954 38.6188 55.5054 37.8988 57.6354C37.7188 58.1754 37.5488 58.2754 37.3588 58.2554C37.0988 58.2354 36.7488 58.0454 36.5988 57.8354C34.3788 54.7054 32.1788 51.5654 29.9888 48.4254L28.6088 46.4454C34.6688 45.7954 39.7988 43.1554 43.8788 38.6054L47.7988 44.2054C48.6788 45.4554 49.5588 46.7154 50.4388 47.9654C50.7188 48.3554 50.8588 48.5954 50.6788 48.9254H50.6888Z" fill="#11967E"/>
<path d="M14.0488 36.1554C17.3888 39.4654 21.7988 41.2754 26.4688 41.2754C26.4988 41.2754 26.5388 41.2754 26.5788 41.2754C36.3788 41.2154 44.3188 33.2554 44.2688 23.5154C44.2188 13.7254 36.2788 5.79539 26.5488 5.79539H26.4688C16.6688 5.84539 8.73885 13.8154 8.77885 23.5754C8.79885 28.3354 10.6788 32.8054 14.0588 36.1554H14.0488ZM11.0088 23.5654C10.9988 19.4354 12.6088 15.5454 15.5588 12.5954C18.4988 9.65539 22.3888 8.03539 26.5088 8.03539H26.5388C35.0888 8.05539 42.0288 15.0154 42.0288 23.5554C42.0288 32.0854 35.0688 39.0354 26.5288 39.0454C17.9988 39.0454 11.0488 32.1054 11.0188 23.5754L11.0088 23.5654Z" fill="#11967E"/>
<path d="M18.8988 25.8554C19.4788 26.2754 19.4988 26.3654 19.2788 27.0554L18.8488 28.3654C18.5588 29.2554 18.2688 30.1354 17.9888 31.0254C17.8988 31.3054 17.8188 31.5854 17.7888 31.8654C17.6988 33.0354 18.1888 33.9754 19.2088 34.5754C19.6888 34.8554 20.1788 35.0054 20.6588 35.0054C21.2088 35.0054 21.7488 34.8254 22.2588 34.4654C23.4088 33.6654 24.6088 32.7854 25.9288 31.7954C26.3488 31.4854 26.6788 31.4854 27.0988 31.7954C28.0988 32.5454 29.1188 33.2754 30.1388 34.0154L30.5788 34.3354C31.7288 35.1654 32.9888 35.1954 34.0488 34.4354C35.1288 33.6654 35.4888 32.4354 35.0588 31.0654C34.7988 30.2454 34.5288 29.4354 34.2688 28.6254L33.7488 27.0454C33.5288 26.3754 33.5688 26.2754 34.1488 25.8454C34.5088 25.5854 34.8688 25.3154 35.2388 25.0554C36.0888 24.4454 36.9688 23.8054 37.8088 23.1654C38.7688 22.4354 39.1288 21.2554 38.7488 20.0854C38.3888 18.9554 37.4388 18.1854 36.3388 18.1054C35.9488 18.0754 35.5088 18.0754 34.9788 18.1054C34.3488 18.1354 33.8888 18.5754 33.8788 19.1854C33.8588 19.7854 34.3088 20.2654 34.9288 20.3254C35.2188 20.3554 35.5088 20.3454 35.7788 20.3254C36.2688 20.3054 36.4988 20.4154 36.6088 20.7354C36.7188 21.0754 36.6088 21.3154 36.1788 21.6154C35.0288 22.4354 33.8888 23.2654 32.7488 24.1054C31.4988 25.0254 31.1388 26.1454 31.6088 27.6354C32.0388 28.9954 32.4788 30.3654 32.9288 31.7254C33.0788 32.1854 33.0288 32.4354 32.7488 32.6354C32.4888 32.8154 32.2488 32.7854 31.8688 32.5154C30.7288 31.6754 29.5888 30.8454 28.4388 30.0154C27.1188 29.0654 25.9388 29.0654 24.6288 30.0154C23.4788 30.8454 22.3388 31.6754 21.1988 32.5054C20.7988 32.7954 20.5588 32.8254 20.2788 32.6154C20.0188 32.4154 19.9788 32.1754 20.1188 31.7454C20.5688 30.3854 21.0088 29.0254 21.4388 27.6554C21.9188 26.1354 21.5588 25.0354 20.2688 24.0854L20.1988 24.0354C19.0988 23.2254 17.9988 22.4254 16.8788 21.6354C16.4388 21.3254 16.3188 21.0954 16.4288 20.7554C16.5288 20.4354 16.7388 20.3254 17.2588 20.3354C18.5288 20.3454 19.7988 20.3354 21.0688 20.3354H21.4488C23.0588 20.3354 24.0488 19.6154 24.5388 18.1054C24.9688 16.7854 25.4088 15.4554 25.8288 14.1354C25.9988 13.6154 26.1688 13.4354 26.5188 13.4354C26.8688 13.4354 27.0388 13.6154 27.2088 14.1454C27.6588 15.5454 28.1088 16.9454 28.5788 18.3354C28.9188 19.3354 29.6188 19.9954 30.6288 20.2254C30.9288 20.2954 31.2388 20.2654 31.4888 20.1354C31.7388 19.9954 31.9188 19.7654 31.9888 19.4754C32.1488 18.8154 31.8788 18.3054 31.2788 18.1154C30.9388 18.0054 30.7488 17.7854 30.5988 17.3254C30.2788 16.3054 29.9488 15.2954 29.6088 14.2754L29.3188 13.4054C28.8488 11.9554 27.8788 11.1854 26.5288 11.1754H26.4988C25.1688 11.1754 24.1788 11.9554 23.7188 13.3754L23.4788 14.1054C23.1088 15.2254 22.7488 16.3354 22.3988 17.4554C22.2488 17.9154 22.0088 18.1054 21.5188 18.0854C20.9888 18.0754 20.4588 18.0854 19.9288 18.0854H18.5288C18.0288 18.0854 17.5288 18.0854 17.0388 18.0854C15.7288 18.0954 14.6988 18.8254 14.2988 20.0354C13.8888 21.2554 14.2788 22.4654 15.3288 23.2454C16.0888 23.8154 16.8588 24.3654 17.6188 24.9254C18.0388 25.2354 18.4688 25.5354 18.8888 25.8454L18.8988 25.8554Z" fill="#11967E"/>
</svg>
