<svg width="59" height="61" viewBox="0 0 59 61" fill="none" xmlns="http://www.w3.org/2000/svg">
<path d="M31.2778 0.530762C32.3778 0.680762 33.4778 0.790762 34.5778 0.980762C41.1978 2.14076 46.7578 5.25076 51.2578 10.2208C55.1778 14.5408 57.6578 19.6108 58.4278 25.3908C59.7778 35.6708 56.6678 44.4108 49.0678 51.5108C48.8978 51.6708 48.7278 51.8208 48.4478 52.0808C49.2278 52.1808 49.8978 52.2608 50.6178 52.3608C50.5478 52.9508 50.4878 53.5008 50.4178 54.1208C49.5278 54.0308 48.6778 53.9408 47.8278 53.8508C46.9778 53.7608 46.1278 53.6608 45.1678 53.5508C45.3578 51.8108 45.5478 50.0908 45.7378 48.3108C46.3378 48.3708 46.8878 48.4208 47.5078 48.4808C47.4478 49.1708 47.3878 49.8408 47.3278 50.5408C48.6778 49.6908 51.6778 46.2408 52.6278 44.4708C51.6078 43.8708 50.5978 43.2608 49.5178 42.6308C49.8178 42.1108 50.1078 41.6108 50.4178 41.0808C51.4678 41.7008 52.4878 42.3008 53.5778 42.9308C55.6678 39.1008 56.7678 35.0608 56.9478 30.6808H53.3178V28.9008H56.8478C57.3378 26.7108 55.4978 19.8008 53.5978 16.6708C52.5678 17.2708 51.5378 17.8808 50.4578 18.5108C50.1578 18.0008 49.8678 17.5208 49.5478 16.9708C50.5978 16.3508 51.6278 15.7408 52.6478 15.1308C51.6578 12.8308 46.7278 7.87076 44.2278 6.67076C43.6278 7.69076 43.0178 8.71076 42.3778 9.78076C41.8678 9.48076 41.3778 9.18076 40.8378 8.87076C41.4578 7.81076 42.0678 6.79076 42.6978 5.71076C38.8878 3.63076 34.8378 2.52076 30.4578 2.36076V5.99076H28.6378V2.37076C24.2678 2.51076 20.2578 3.62076 16.4278 5.68076C17.0378 6.73076 17.6378 7.75076 18.2778 8.85076C17.7778 9.14076 17.2878 9.43076 16.7378 9.76076C16.1078 8.69076 15.4878 7.66076 14.8678 6.61076C11.4178 8.81076 8.62777 11.6008 6.39777 15.0608C7.44777 15.6808 8.47777 16.3008 9.54777 16.9308C9.23777 17.4708 8.93777 17.9608 8.63777 18.4808C7.56777 17.8508 6.54777 17.2508 5.46777 16.6208C3.36777 20.4608 2.27777 24.5008 2.10777 28.8808H5.74777V30.6408H0.307773C0.297773 30.4708 0.277773 30.3008 0.267773 30.1408C0.147773 16.5408 9.25777 4.70076 22.4078 1.42076C23.9878 1.03076 25.6378 0.890762 27.2578 0.640762C27.4278 0.610762 27.5978 0.570762 27.7678 0.540762C28.9378 0.540762 30.1078 0.540762 31.2878 0.540762L31.2778 0.530762Z" fill="#11967E"/>
<path d="M38.3778 58.6408H32.2778V53.4608H21.7978C21.7978 52.0208 21.8478 50.6608 21.7778 49.3008C21.7378 48.4108 21.9978 47.7308 22.5478 47.0208C26.2678 42.3208 29.9478 37.5908 33.6078 32.8508C34.0178 32.3208 34.4178 32.0608 35.1078 32.1108C36.1578 32.1808 37.2078 32.1308 38.3278 32.1308V47.9808H41.6678V53.4408H38.3678V58.6508L38.3778 58.6408ZM32.9678 41.2808C31.2078 43.5808 29.5478 45.7308 27.8478 47.9508H32.9678V41.2808Z" fill="#11967E"/>
<path d="M9.30777 48.3508H19.4378V53.8108H0.577773C0.537773 52.1608 0.717773 50.5508 1.30777 49.0008C2.01777 47.1208 3.39777 45.8008 5.03777 44.7708C6.63777 43.7708 8.31777 42.8908 9.95777 41.9408C10.5278 41.6108 11.0778 41.2308 11.6178 40.8408C13.0578 39.8108 12.4578 37.8408 11.1078 37.3408C9.48777 36.7408 7.94777 36.9708 6.55777 37.9708C5.81777 38.5008 5.15777 39.1508 4.42777 39.7808C3.17777 38.3408 1.90777 36.8708 0.517773 35.2608C1.36777 34.6808 2.11777 34.0608 2.96777 33.6108C6.36777 31.8208 9.98777 31.2708 13.7478 32.0808C16.4278 32.6608 18.3978 34.1608 18.9278 37.0008C19.4778 39.9408 18.3278 42.2508 15.8878 43.8908C14.1078 45.0908 12.2478 46.1608 10.4278 47.3108C10.0078 47.5708 9.63777 47.9108 9.23777 48.2108C9.25777 48.2508 9.27777 48.3008 9.29777 48.3408L9.30777 48.3508Z" fill="#11967E"/>
<path d="M28.6078 10.0408H30.4278V10.7308C30.4278 15.6908 30.4278 20.6508 30.4278 25.6108C30.4278 26.0008 30.4978 26.2208 30.9178 26.3808C31.8678 26.7408 32.5778 27.4308 32.9178 28.4008C33.0678 28.8408 33.3078 28.8908 33.6878 28.8808C36.8278 28.8808 39.9778 28.8808 43.1178 28.8808H43.7878V30.6708C43.5678 30.6708 43.3578 30.6708 43.1478 30.6708C40.0078 30.6708 36.8578 30.6708 33.7178 30.6708C33.2978 30.6708 33.0778 30.7408 32.9078 31.1908C32.3178 32.7208 30.6978 33.6508 29.1178 33.4508C27.4778 33.2408 26.1178 31.9608 25.8978 30.4208C25.6478 28.6808 26.4978 27.0708 28.0878 26.4308C28.5478 26.2408 28.6278 26.0008 28.6178 25.5708C28.6078 20.6508 28.6178 15.7308 28.6178 10.8108V10.0708L28.6078 10.0408ZM29.5178 27.9008C28.4878 27.9008 27.6578 28.7308 27.6478 29.7508C27.6378 30.8008 28.4878 31.6608 29.5278 31.6608C30.5678 31.6608 31.4178 30.7908 31.3978 29.7408C31.3778 28.7208 30.5378 27.8908 29.5178 27.9008Z" fill="#11967E"/>
<path d="M24.0278 58.5208C24.4178 59.2008 24.7578 59.7808 25.1078 60.3808C24.0778 60.6608 23.8678 60.5808 23.3678 59.7508C23.2878 59.6208 23.1878 59.4908 23.1378 59.3508C22.9378 58.8608 22.5978 58.6708 22.0178 58.8608V60.4508H20.8378V55.3108C21.7778 55.3108 22.7278 55.1808 23.6178 55.3408C24.8278 55.5608 25.2678 57.2208 24.4478 58.1708C24.3378 58.3008 24.1878 58.4008 24.0278 58.5308V58.5208ZM22.0378 57.7608C22.5778 57.6008 23.1978 58.0108 23.5178 57.3908C23.6278 57.1808 23.6078 56.6608 23.4978 56.6008C23.0678 56.3908 22.5778 56.3108 22.0378 56.1708V57.7608Z" fill="#11967E"/>
<path d="M12.3278 57.9308C12.2878 59.3708 11.1078 60.5408 9.69777 60.5208C8.23777 60.5008 7.08777 59.2608 7.12777 57.7508C7.15777 56.3208 8.36777 55.1608 9.78777 55.2008C11.2278 55.2308 12.3678 56.4508 12.3278 57.9308ZM9.74777 56.3008C8.93777 56.3008 8.37777 56.9208 8.36777 57.8508C8.36777 58.7608 8.92777 59.4408 9.71777 59.4508C10.4978 59.4508 11.0878 58.7908 11.1078 57.8808C11.1278 56.9808 10.5478 56.3108 9.74777 56.3008Z" fill="#11967E"/>
<path d="M0.817773 55.2608H1.96777V57.2208H4.08777V55.2708H5.29777V60.4508H4.09777V58.3608H1.99777V60.4508H0.817773V55.2608Z" fill="#11967E"/>
<path d="M14.0778 55.2708H15.3078C15.3078 56.0808 15.2878 56.8608 15.3078 57.6308C15.3178 58.0308 15.3278 58.4908 15.5078 58.8108C15.6678 59.0908 16.0678 59.3408 16.4078 59.4108C16.8278 59.4908 17.2178 59.2408 17.3378 58.7808C17.4378 58.3908 17.5078 57.9808 17.5278 57.5808C17.5578 56.8208 17.5278 56.0708 17.5278 55.2708H18.7678C18.7178 56.4608 18.7478 57.6508 18.5778 58.8108C18.4178 59.9308 17.4778 60.5508 16.3278 60.5208C15.1478 60.4908 14.3378 59.8008 14.1378 58.6408C14.0878 58.3508 14.0578 58.0608 14.0478 57.7708C14.0378 56.9508 14.0478 56.1408 14.0478 55.2608L14.0778 55.2708Z" fill="#11967E"/>
<path d="M30.0878 56.6308C29.5078 56.5008 29.0278 56.3508 28.5378 56.3008C28.3678 56.2808 28.1778 56.5108 27.9978 56.6308C28.1278 56.8008 28.2278 57.0408 28.3978 57.1208C28.7878 57.3008 29.2178 57.3708 29.6178 57.5208C30.4378 57.8208 30.7578 58.3108 30.6878 59.1208C30.6278 59.8308 30.1578 60.3108 29.3578 60.4608C28.3878 60.6508 27.3878 60.4408 26.5278 59.8608C26.6778 59.5508 26.8378 59.2208 26.9678 58.9508C27.5378 59.1208 28.0478 59.3208 28.5778 59.4008C28.8278 59.4408 29.1078 59.2308 29.3778 59.1308C29.1878 58.9408 29.0278 58.6908 28.8078 58.5708C28.4878 58.4008 28.1078 58.3308 27.7678 58.2008C27.0278 57.9108 26.7078 57.4808 26.7178 56.8208C26.7378 56.1508 27.1778 55.5308 27.8478 55.3308C28.7978 55.0408 29.6878 55.2408 30.5378 55.7808C30.3678 56.1008 30.2178 56.3908 30.0778 56.6408L30.0878 56.6308Z" fill="#11967E"/>
</svg>
