<svg width="61" height="61" viewBox="0 0 61 61" fill="none" xmlns="http://www.w3.org/2000/svg">
<path d="M3.99223 23.2197C3.99223 22.6231 3.99059 22.0495 3.99223 21.4775C4.00206 19.501 5.31318 18.185 7.27657 18.2391C11.1657 18.3456 15.0204 18.7815 18.8406 19.5207C18.939 19.5403 19.0406 19.5535 19.1799 19.5764C19.5716 16.3215 21.0269 13.66 23.6246 11.6736C25.6732 10.1069 28.007 9.36279 30.5915 9.36279C35.9851 9.36443 41.1526 13.5371 41.8032 19.5469C42.8029 19.3814 43.7961 19.1634 44.8007 19.0618C47.7475 18.7619 50.6942 18.4488 53.6492 18.2522C55.7207 18.1145 56.9958 19.4355 57.0007 21.5087C57.0007 22.0593 57.0007 22.6116 57.0007 23.1476C57.4858 23.3508 57.9562 23.4966 58.3741 23.7343C59.995 24.6586 60.9062 26.0763 60.9127 27.9413C60.9406 37.1831 60.939 46.4264 60.9177 55.6682C60.9111 58.433 58.7117 60.5193 55.878 60.5226C47.677 60.5308 39.476 60.5259 31.2766 60.5259C22.6461 60.5259 14.0157 60.5259 5.38693 60.5259C2.10258 60.5291 0.0654297 58.4903 0.0654297 55.2027C0.0654297 46.3297 0.0654297 37.4551 0.0654297 28.5821C0.0654297 25.7403 1.22905 24.1309 3.99223 23.218V23.2197ZM29.4967 40.8542C29.146 40.8542 28.8412 40.8689 28.5413 40.8509C27.9562 40.8149 27.5612 40.415 27.5579 39.879C27.5546 39.3415 27.9463 38.9088 28.5281 38.899C29.836 38.8777 31.1455 38.8777 32.4549 38.899C33.04 38.9088 33.435 39.33 33.4383 39.8676C33.4416 40.4019 33.0466 40.8132 32.4664 40.8509C32.1501 40.8722 31.8305 40.8542 31.524 40.8542V57.9675C31.6715 57.9184 31.7666 57.8905 31.8584 57.8561C38.9433 55.1814 46.2692 53.7834 53.8376 53.6425C54.6292 53.6277 55.0291 53.2115 55.0307 52.3969C55.0357 42.0899 55.0357 31.7813 55.0307 21.4742C55.0307 20.5974 54.6095 20.1779 53.7442 20.2057C49.8977 20.3303 46.0807 20.7351 42.3047 21.4955C41.9442 21.5677 41.8147 21.6922 41.7704 22.0741C41.4164 25.0749 40.1119 27.6054 37.7551 29.4884C36.3096 30.6439 35.518 32.0107 35.4181 33.8643C35.3263 35.5704 33.9136 36.8618 32.214 36.911C31.0897 36.9421 29.9638 36.9421 28.8395 36.911C27.1072 36.8651 25.6666 35.4819 25.606 33.7496C25.5454 32.0041 24.821 30.6652 23.4443 29.613C21.9365 28.4609 20.7794 26.9924 20.0977 25.2208C19.6535 24.0686 19.3962 22.8427 19.0307 21.5677C15.2613 20.7826 11.3312 20.3401 7.36344 20.2057C6.34404 20.1713 5.9589 20.5647 5.95726 21.6004C5.95726 31.8255 5.95726 42.0522 5.95726 52.2773C5.95726 53.2492 6.32438 53.6261 7.27494 53.6458C14.7385 53.7916 21.9676 55.1667 28.9559 57.7987C29.1214 57.861 29.2935 57.9036 29.4967 57.9675V40.8525V40.8542ZM27.6972 23.1689C28.8658 24.5734 29.9818 25.8714 31.0406 27.2153C31.2831 27.5234 31.4487 27.9807 31.4569 28.3724C31.5011 30.1735 31.4765 31.9763 31.4765 33.7791C31.4765 34.1609 31.4765 34.5444 31.4765 34.9181C32.8925 35.0164 33.3957 34.6034 33.4924 33.2677C33.6497 31.1126 34.6461 29.4622 36.308 28.1036C39.1367 25.7927 40.2889 22.7657 39.7087 19.1536C39.0351 14.9596 35.6524 11.8523 31.3651 11.377C27.4235 10.9394 23.4213 13.3519 21.8398 17.123C20.2206 20.9793 21.3121 25.4404 24.5915 28.0446C26.3648 29.454 27.3776 31.1994 27.5006 33.4792C27.5628 34.6329 28.3397 35.1394 29.5131 34.8575C29.5131 32.799 29.5213 30.7324 29.5016 28.6657C29.5 28.4707 29.3607 28.2478 29.2263 28.0855C27.8087 26.3647 26.3796 24.6504 24.9504 22.9394C24.6554 22.5854 24.4866 22.215 24.7046 21.7594C24.9177 21.312 25.293 21.1792 25.76 21.1792C28.9084 21.1842 32.055 21.1858 35.2034 21.1792C35.6983 21.1792 36.0851 21.3235 36.2916 21.8053C36.4915 22.2724 36.3063 22.6428 35.9835 22.9673C34.9297 24.026 33.8759 25.0831 32.8171 26.1369C32.7024 26.25 32.5746 26.3729 32.4287 26.4286C31.9633 26.6073 31.529 26.5417 31.2307 26.1107C30.9226 25.6633 30.9848 25.2142 31.3585 24.8274C31.8715 24.2948 32.3992 23.7736 33.0007 23.1672H27.7005L27.6972 23.1689ZM36.2687 58.3592C36.2768 58.4264 36.285 58.4936 36.2932 58.5608H36.9045C43.1405 58.5608 49.3765 58.5608 55.6142 58.5608C57.8218 58.5608 58.9641 57.407 58.9641 55.1798C58.9641 46.2675 58.9641 37.3535 58.9641 28.4412C58.9641 28.2363 58.9706 28.0298 58.9559 27.8266C58.8641 26.6286 57.9742 25.5108 57.0023 25.3912C57.0023 25.6387 57.0023 25.8845 57.0023 26.1287C57.0023 34.8771 57.004 43.6272 57.0007 52.3756C57.0007 54.2112 55.7633 55.5567 54.0097 55.6059C50.2222 55.7141 46.4626 56.0844 42.7521 56.8498C40.5806 57.2972 38.4304 57.8528 36.2703 58.3592H36.2687ZM3.99223 25.3765C2.75158 25.7354 2.03047 26.8285 2.03047 28.2806C2.03047 37.2748 2.03047 46.2691 2.03047 55.2634C2.03047 57.389 3.20719 58.5608 5.3394 58.5608C11.5951 58.5608 17.8524 58.5608 24.108 58.5608H24.6964C24.5718 58.4117 24.4293 58.3592 24.2818 58.3166C18.7652 56.6925 13.1307 55.8009 7.38474 55.6223C5.17387 55.5535 3.99223 54.3718 3.99223 52.1626C3.99223 43.4961 3.99223 34.8296 3.99223 26.1631V25.3748V25.3765Z" fill="#11967E"/>
<path d="M29.5164 3.47096C29.5164 2.83507 29.5033 2.20082 29.5197 1.56492C29.5377 0.938866 29.9442 0.527503 30.5014 0.530781C31.057 0.534059 31.4634 0.947061 31.4716 1.5764C31.4864 2.84654 31.488 4.11669 31.4716 5.38683C31.4634 6.01289 31.0455 6.42589 30.4899 6.42261C29.9343 6.41934 29.5361 6.0047 29.5197 5.37536C29.5033 4.74111 29.5164 4.10521 29.5164 3.46932V3.47096Z" fill="#11967E"/>
<path d="M41.2738 5.51794C41.069 5.87031 40.9641 6.16859 40.7641 6.37509C39.9299 7.24534 39.0761 8.09593 38.214 8.93996C37.7486 9.39557 37.134 9.41196 36.739 9.01535C36.3375 8.61218 36.3588 8.01562 36.8259 7.54362C37.6863 6.67009 38.5598 5.80967 39.4334 4.94925C39.7513 4.63622 40.1528 4.47724 40.5429 4.72472C40.8248 4.90336 41.0149 5.22786 41.2738 5.51958V5.51794Z" fill="#11967E"/>
<path d="M24.5571 8.3811C24.3686 8.61874 24.2129 8.9924 23.9474 9.10057C23.6573 9.21857 23.1427 9.2284 22.9444 9.04649C21.9381 8.12543 20.9794 7.14864 20.055 6.14564C19.6912 5.75067 19.7879 5.25408 20.1796 4.88369C20.5516 4.53133 21.0302 4.46413 21.3989 4.81322C22.3888 5.75231 23.3361 6.73728 24.2834 7.72062C24.4112 7.85337 24.4391 8.08446 24.5587 8.3811H24.5571Z" fill="#11967E"/>
<path d="M35.6115 49.7091C34.792 49.7157 34.3806 49.424 34.2938 48.9077C34.1987 48.3407 34.4888 47.9309 35.1181 47.7408C40.1594 46.2167 45.3088 45.2907 50.5598 44.9334C50.6827 44.9252 50.804 44.917 50.9269 44.9154C51.6022 44.9072 52.0463 45.2595 52.0824 45.8332C52.1184 46.3953 51.7005 46.8165 51.0433 46.8837C49.5208 47.0394 47.995 47.1705 46.4757 47.3557C43.0258 47.7769 39.6448 48.5357 36.3145 49.524C36.0245 49.6108 35.7262 49.6764 35.6098 49.7059L35.6115 49.7091Z" fill="#11967E"/>
<path d="M10.1971 44.8072C15.4547 45.1612 20.6008 46.1314 25.6404 47.6638C26.3992 47.8949 26.7286 48.3898 26.5582 49.011C26.3959 49.6108 25.8125 49.8698 25.0619 49.637C21.7415 48.6078 18.3686 47.8031 14.9253 47.3246C13.3077 47.1 11.6803 46.9427 10.0561 46.7706C9.29897 46.6903 8.86139 46.3052 8.90728 45.7037C8.9548 45.0957 9.42845 44.763 10.1954 44.8072H10.1971Z" fill="#11967E"/>
<path d="M50.8745 39.8463C51.5874 39.8561 52.0545 40.2167 52.084 40.8099C52.1119 41.3737 51.6989 41.7949 51.0286 41.8441C45.9168 42.2161 40.9018 43.1126 36.0032 44.6335C35.8475 44.681 35.6836 44.7023 35.523 44.7318C34.9166 44.8433 34.4577 44.6007 34.3118 44.0926C34.1561 43.5436 34.4298 43.0224 35.0149 42.8438C38.6729 41.7294 42.3867 40.8575 46.184 40.3674C47.7442 40.1659 49.311 40.0167 50.8729 39.8446L50.8745 39.8463Z" fill="#11967E"/>
<path d="M10.3003 35.0722C15.5989 35.4409 20.7024 36.4111 25.701 37.9402C26.3533 38.1402 26.6713 38.6351 26.5271 39.1694C26.3648 39.7709 25.8223 40.0364 25.1012 39.8168C21.8529 38.8285 18.5522 38.073 15.1908 37.6075C13.5126 37.3748 11.8212 37.2339 10.1348 37.0667C9.28914 36.9831 8.88269 36.6537 8.904 36.0162C8.9253 35.3524 9.38256 35.0345 10.261 35.0722C10.302 35.0738 10.3429 35.0722 10.302 35.0722H10.3003Z" fill="#11967E"/>
<path d="M52.0856 36.1063C52.0906 36.6308 51.7349 37.0224 51.1138 37.0929C50.078 37.2109 49.0389 37.288 48.0032 37.3928C44.1124 37.7878 40.3003 38.5827 36.5489 39.6791C36.2162 39.7758 35.8786 39.8594 35.5426 39.9446C34.9395 40.0987 34.4823 39.8856 34.32 39.3792C34.1414 38.817 34.4216 38.2877 35.0526 38.1041C36.444 37.6993 37.8338 37.283 39.24 36.9405C43.0373 36.0145 46.8871 35.4049 50.7909 35.1558C51.5743 35.1066 52.0791 35.4671 52.0856 36.1047V36.1063Z" fill="#11967E"/>
<path d="M10.1971 39.8889C15.4301 40.2429 20.55 41.2033 25.5667 42.7258C26.237 42.929 26.5336 43.3945 26.3746 43.9484C26.2058 44.5384 25.6961 44.7875 25.0111 44.581C20.7401 43.2945 16.3856 42.4357 11.9474 42.0014C11.3181 41.9391 10.6871 41.8933 10.0561 41.8474C9.30389 41.7933 8.86303 41.3885 8.90891 40.7854C8.95644 40.1773 9.43008 39.8463 10.1971 39.8889Z" fill="#11967E"/>
<path d="M10.3429 28.1101C12.6292 28.415 14.9171 28.7116 17.2017 29.0328C17.8884 29.1295 18.2572 29.5769 18.1851 30.1276C18.1048 30.7307 17.5656 31.0847 16.8559 30.9897C15.2367 30.7766 13.6175 30.5521 11.9966 30.3472C11.4099 30.2735 10.8166 30.2391 10.2266 30.185C9.31536 30.0998 8.85319 29.7081 8.90891 29.0689C8.96464 28.4314 9.42189 28.1495 10.3429 28.1101Z" fill="#11967E"/>
<path d="M10.4724 24.1506C11.4328 24.2473 12.6915 24.3653 13.9469 24.5078C14.5287 24.575 14.8712 25.0126 14.8302 25.56C14.7909 26.0746 14.4025 26.4893 13.8518 26.4516C12.4702 26.3565 11.0886 26.227 9.71197 26.0648C9.18097 26.0025 8.85319 25.4961 8.91219 24.9979C8.98103 24.4128 9.42681 24.1096 10.4724 24.1506Z" fill="#11967E"/>
</svg>
