<svg width="57" height="63" viewBox="0 0 57 63" fill="none" xmlns="http://www.w3.org/2000/svg">
<path d="M55.8107 46.8208C54.3307 44.6208 51.5107 43.8208 49.1007 44.9208C47.6107 45.6008 46.1307 46.3108 44.6507 47.0108C43.9507 47.3408 43.2607 47.6708 42.5607 48.0008C42.1707 48.1808 41.7907 48.3608 41.4007 48.5408L41.1107 48.6808C41.1107 48.6808 41.0907 48.6408 41.0707 48.6308C39.7107 46.4808 37.7107 45.3708 35.1307 45.3308C34.3807 45.3208 33.6407 45.2908 32.8907 45.2708C31.7907 45.2308 30.6507 45.1908 29.5207 45.2008C27.4707 45.2008 25.5707 44.7408 23.6907 43.7708C20.7707 42.2608 17.5807 41.9608 14.2307 42.8808C13.6107 43.0508 13.0007 43.2808 12.4107 43.5008C12.2507 43.5608 12.0907 43.6208 11.9207 43.6808C11.9207 43.4108 11.9207 43.1508 11.9207 42.8908C11.9507 42.2208 11.8507 41.8108 11.5907 41.5408C11.3307 41.2708 10.9507 41.1408 10.3007 41.1208C7.8007 41.0508 5.3107 40.9908 2.8207 40.9308C1.7707 40.9108 1.3107 41.3608 1.2707 42.4008C1.2507 42.9708 1.2407 43.5508 1.2307 44.1208L1.0807 49.6208C0.9807 52.9908 0.8907 56.3608 0.8007 59.7308C0.7707 60.9408 1.5007 61.2208 2.1207 61.2408C4.4407 61.3208 6.9207 61.3808 10.1507 61.4408C10.5707 61.4508 10.9007 61.3208 11.1307 61.0708C11.3307 60.8608 11.4307 60.5808 11.4107 60.2608C11.3607 59.5908 11.6807 59.3308 12.3207 59.0608C12.5707 58.9508 12.8107 58.8208 13.0407 58.6908C13.1607 58.6208 13.2907 58.5508 13.4107 58.4808C14.2507 58.0408 15.1007 57.9508 15.9907 58.2008L16.2207 58.2608C17.3707 58.5808 18.5207 58.9108 19.6807 59.2208C22.3307 59.9408 24.9807 60.6508 27.6407 61.3608L30.0507 62.0108H32.7207L32.9107 61.9708C33.0407 61.9408 33.1607 61.9108 33.2907 61.8908C34.6707 61.6808 36.2607 61.3708 37.6407 60.4908C42.2907 57.5108 46.9307 54.5008 51.5607 51.5008L55.3707 49.0408C55.8507 48.7308 56.1107 48.4208 56.1807 48.0608C56.2507 47.7008 56.1407 47.3008 55.8107 46.8108V46.8208ZM38.9107 50.9008C38.4207 50.9008 37.9407 50.9008 37.4507 50.9008C35.8307 50.8608 34.2007 50.8108 32.5807 50.7708L28.8807 50.6708C28.0307 50.6508 27.5307 50.9708 27.3707 51.6408C27.2807 52.0108 27.3507 52.3608 27.5707 52.6508C27.8107 52.9708 28.2107 53.1608 28.6707 53.1808C30.3307 53.2508 31.9907 53.2908 33.6507 53.3408L34.2007 53.3608C36.2507 53.4208 38.3007 53.4708 40.3507 53.5108C40.9907 53.5108 41.4207 53.4008 41.6907 53.1208C41.9607 52.8408 42.0707 52.4008 42.0307 51.7508C42.0207 51.5708 42.0007 51.3908 41.9707 51.2008V51.1208L48.5707 47.9908C49.1007 47.7408 49.6207 47.4808 50.1607 47.2608C51.1607 46.8308 52.0807 46.9308 53.0207 47.5608C52.9507 47.6108 52.8807 47.6608 52.8107 47.7108C51.3007 48.6908 49.7907 49.6708 48.2807 50.6508C44.4207 53.1608 40.4207 55.7608 36.4607 58.2608C34.6107 59.4308 32.4007 59.8208 30.0707 59.3808C28.3007 59.0508 26.5307 58.5408 24.8107 58.0508C24.1807 57.8708 23.5507 57.6908 22.9207 57.5208C20.7707 56.9408 18.8607 56.4008 17.0807 55.8708C16.3707 55.6608 15.6907 55.5608 15.0307 55.5608C13.9107 55.5608 12.8607 55.8608 11.8507 56.4708C11.7607 56.5308 11.6607 56.5708 11.5607 56.6208C11.5607 56.6108 11.5607 56.6008 11.5607 56.5908L11.6407 53.8408C11.7107 51.5908 11.7707 49.3508 11.8207 47.1008C11.8207 46.7908 11.9107 46.6508 12.1807 46.5008C15.5907 44.5808 19.0807 44.4308 22.5607 46.0508L22.9907 46.2508C24.3507 46.8908 25.7607 47.5608 27.3407 47.6608C28.3807 47.7308 29.4307 47.7508 30.4507 47.7808C30.9007 47.7908 31.3407 47.8008 31.7907 47.8208C32.2007 47.8308 32.6107 47.8408 33.0207 47.8508C33.8907 47.8708 34.7507 47.8908 35.6207 47.9408C37.3407 48.0308 38.9607 49.3708 39.3107 50.9408H38.9507L38.9107 50.9008ZM9.3507 43.6008L8.9307 58.7808H3.3707L3.7907 43.6008H9.3507Z" fill="#11967E"/>
<path d="M29.1407 41.9508C37.4607 41.9508 44.2307 35.1908 44.2307 26.8908C44.2307 18.5808 37.4707 11.8308 29.1507 11.8208C20.8307 11.8208 14.0607 18.5808 14.0607 26.8808C14.0607 30.9008 15.6307 34.6808 18.4807 37.5308C21.3307 40.3808 25.1207 41.9408 29.1407 41.9408V41.9508ZM16.6107 26.9208C16.6107 23.5708 17.9007 20.4108 20.2707 18.0408C22.6407 15.6708 25.7907 14.3608 29.1507 14.3608C36.0307 14.3608 41.6407 19.9508 41.6707 26.8208C41.6807 30.1808 40.3907 33.3308 38.0307 35.7108C35.6707 38.0908 32.5207 39.4008 29.1607 39.4108H29.1207C25.8007 39.4108 22.6707 38.1108 20.3007 35.7608C17.9207 33.3908 16.6107 30.2508 16.6107 26.9208Z" fill="#11967E"/>
<path d="M28.6807 10.3808C28.8407 10.4308 29.0007 10.4608 29.1607 10.4608C29.4407 10.4608 29.7007 10.3808 29.9207 10.2308C30.2107 10.0208 30.3907 9.69076 30.3907 9.33076C30.4007 8.44076 30.4007 7.55076 30.3907 6.66076V4.43076C30.3907 3.54076 30.3907 2.65076 30.3907 1.75076C30.3907 1.01076 29.9107 0.540762 29.1607 0.530762C28.7707 0.530762 28.4507 0.640762 28.2207 0.860762C27.9907 1.08076 27.8707 1.39076 27.8707 1.76076C27.8707 2.62076 27.8707 3.48076 27.8707 4.35076V6.49076C27.8707 7.40076 27.8707 8.32076 27.8707 9.23076C27.8707 9.81076 28.1407 10.2008 28.6807 10.3808Z" fill="#11967E"/>
<path d="M35.5407 7.54076C35.5407 8.07076 35.5407 8.59076 35.5407 9.12076C35.5507 9.54076 35.7007 9.90076 35.9507 10.1408C36.1707 10.3508 36.4607 10.4608 36.7907 10.4608C36.8007 10.4608 36.8207 10.4608 36.8307 10.4608C37.5507 10.4408 38.0407 9.90076 38.0507 9.12076C38.0607 7.65076 38.0607 6.16076 38.0507 4.68076C38.0507 3.90076 37.5507 3.36076 36.8307 3.33076C36.4907 3.32076 36.1807 3.43076 35.9407 3.65076C35.6807 3.89076 35.5407 4.25076 35.5307 4.67076C35.5207 5.19076 35.5207 5.70076 35.5307 6.22076V7.55076L35.5407 7.54076Z" fill="#11967E"/>
<path d="M21.4407 10.4508C21.4407 10.4508 21.4707 10.4508 21.4807 10.4508C21.8107 10.4508 22.1007 10.3408 22.3207 10.1308C22.5807 9.89076 22.7207 9.53076 22.7307 9.11076C22.7407 8.60076 22.7307 8.09076 22.7307 7.58076V6.25076C22.7307 5.72076 22.7307 5.19076 22.7307 4.65076C22.7107 3.87076 22.2207 3.33076 21.5107 3.31076C21.1707 3.31076 20.8507 3.42076 20.6207 3.64076C20.3707 3.88076 20.2207 4.24076 20.2207 4.66076C20.2007 6.12076 20.2107 7.61076 20.2207 9.10076C20.2207 9.88076 20.7207 10.4208 21.4407 10.4408V10.4508Z" fill="#11967E"/>
<path d="M29.1807 32.2008C28.0307 32.2008 27.1907 31.4308 27.0807 30.2808C27.0007 29.3708 26.4507 28.8308 25.7007 28.8908C25.3507 28.9208 25.0507 29.0708 24.8307 29.3308C24.5807 29.6408 24.4807 30.0708 24.5407 30.5508C24.7707 32.4008 25.7107 33.6908 27.3507 34.3908C27.7507 34.5608 27.8007 34.6808 27.7507 34.9608C27.7207 35.1608 27.7507 35.3708 27.7607 35.5208C27.8407 36.1908 28.3707 36.6708 29.0107 36.6708H29.0407C29.4007 36.6708 29.7507 36.5008 29.9807 36.2408C30.1807 36.0108 30.2807 35.7208 30.2507 35.4308C30.1907 34.8108 30.4107 34.6008 31.0607 34.3308C32.8007 33.6208 33.9307 31.7208 33.7507 29.8108C33.5607 27.8008 32.2107 26.1908 30.3007 25.7108C29.9907 25.6308 29.6607 25.6008 29.3507 25.5708C29.1807 25.5508 29.0007 25.5308 28.8307 25.5108C27.8007 25.3608 27.0707 24.5308 27.0707 23.4908C27.0707 22.3708 27.9407 21.4508 29.0707 21.4108C30.1707 21.3508 31.0907 22.2108 31.2007 23.3808C31.2807 24.2508 31.8207 24.8008 32.5307 24.7508C32.8807 24.7308 33.2007 24.5808 33.4207 24.3308C33.6707 24.0408 33.7907 23.6308 33.7407 23.1908C33.5607 21.3508 32.6307 20.0108 31.0607 19.3308C30.4207 19.0508 30.1607 18.8708 30.2307 18.2408C30.2607 17.9508 30.1707 17.6608 29.9607 17.4408C29.7207 17.1808 29.3607 17.0208 29.0007 17.0208C28.3707 17.0208 27.8607 17.4708 27.7607 18.1208C27.7407 18.2908 27.7107 18.4808 27.7407 18.6708C27.7807 18.9708 27.7307 19.0908 27.3507 19.2508C25.6407 19.9708 24.6707 21.3208 24.5307 23.1508C24.4007 24.8908 25.1207 26.3408 26.6307 27.3608C27.4407 27.9108 28.3607 28.0208 29.2507 28.1208L29.4007 28.1408C30.5207 28.2708 31.2807 29.2008 31.1907 30.3408C31.1107 31.3908 30.2207 32.2108 29.1707 32.2208L29.1807 32.2008Z" fill="#11967E"/>
</svg>
