<svg width="73" height="46" viewBox="0 0 73 46" fill="none" xmlns="http://www.w3.org/2000/svg">
<g clip-path="url(#clip0_2014_2879)">
<path d="M18.6696 18.2454C13.6794 18.2454 9.64502 22.2784 9.64502 27.253C9.64502 32.2276 13.6794 36.2607 18.6556 36.2607C23.6317 36.2607 27.6661 32.2276 27.6661 27.253C27.6802 22.2784 23.6458 18.2454 18.6696 18.2454ZM18.6696 33.7031C15.1132 33.7031 12.2175 30.8224 12.2175 27.253C12.2175 23.6837 15.0991 20.8029 18.6696 20.8029C22.2401 20.8029 25.1077 23.6977 25.1077 27.253C25.1077 30.8083 22.226 33.7031 18.6696 33.7031Z" fill="white"/>
<path d="M18.6976 31.7216C21.1741 31.7216 23.1818 29.7146 23.1818 27.2389C23.1818 24.7631 21.1741 22.7561 18.6976 22.7561C16.221 22.7561 14.2134 24.7631 14.2134 27.2389C14.2134 29.7146 16.221 31.7216 18.6976 31.7216Z" fill="white"/>
<path d="M54.6556 18.2454C49.6794 18.2454 45.645 22.2784 45.645 27.253C45.645 32.2276 49.6794 36.2607 54.6556 36.2607C59.6317 36.2607 63.6661 32.2276 63.6661 27.253C63.6661 22.2784 59.6317 18.2454 54.6556 18.2454ZM54.6556 33.7031C51.0991 33.7031 48.2034 30.8224 48.2034 27.253C48.2034 23.6837 51.0851 20.8029 54.6556 20.8029C58.226 20.8029 61.0937 23.6977 61.0937 27.253C61.0937 30.8083 58.212 33.7031 54.6556 33.7031Z" fill="white"/>
<path d="M54.6834 31.7216C57.16 31.7216 59.1676 29.7146 59.1676 27.2389C59.1676 24.7631 57.16 22.7561 54.6834 22.7561C52.2069 22.7561 50.1992 24.7631 50.1992 27.2389C50.1992 29.7146 52.2069 31.7216 54.6834 31.7216Z" fill="white"/>
<path d="M67.3349 14.4934L72.6344 9.23772H61.8948C55.8784 4.34745 45.8839 0.272217 36.6203 0.272217C27.3427 0.272217 17.4325 4.34745 11.4161 9.23772H0.648438L5.94793 14.4934C2.67265 17.7535 0.648438 22.2644 0.648438 27.253C0.648438 37.2022 8.71716 45.2684 18.6695 45.2684C23.2381 45.2684 27.413 43.568 30.5899 40.7575L36.6906 45.2403L42.7211 40.8559L42.6508 40.6872C45.8417 43.5259 50.0307 45.2543 54.6414 45.2543C64.5938 45.2543 72.6625 37.1882 72.6625 27.239C72.6484 22.2644 70.6102 17.7535 67.3349 14.4934ZM52.3782 9.37825C43.8456 10.4462 37.1545 17.4725 36.6484 26.171C36.1283 17.4584 29.4231 10.4181 20.8624 9.37825C25.1639 6.28669 30.6461 4.76902 36.6203 4.76902C42.5946 4.76902 48.0768 6.28669 52.3782 9.37825ZM18.6695 40.7716C11.1912 40.7716 5.14668 34.7149 5.14668 27.253C5.14668 19.7912 11.2053 13.7345 18.6695 13.7345C26.1338 13.7345 32.1924 19.7912 32.1924 27.253C32.1783 34.7149 26.1338 40.7716 18.6695 40.7716ZM54.6555 40.7716C47.1912 40.7716 41.1326 34.7149 41.1326 27.253C41.1326 19.7912 47.1912 13.7345 54.6555 13.7345C62.1197 13.7345 68.1783 19.7912 68.1783 27.253C68.1643 34.7149 62.1197 40.7716 54.6555 40.7716Z" fill="white"/>
</g>
<defs>
<clipPath id="clip0_2014_2879">
<rect width="72" height="45" fill="white" transform="translate(0.648438 0.270264)"/>
</clipPath>
</defs>
</svg>
